<?xml version="1.0" encoding="iso-8859-1"?>
<!-- Generator: Adobe Illustrator 19.0.0, SVG Export Plug-In . SVG Version: 6.00 Build 0)  -->
<svg version="1.1" id="Layer_1" xmlns="http://www.w3.org/2000/svg" xmlns:xlink="http://www.w3.org/1999/xlink" x="0px" y="0px"
	 viewBox="0 0 512 512" style="enable-background:new 0 0 512 512;" xml:space="preserve">
<path style="fill:#77757F;" d="M395.636,139.638c-35.61,0-67.519,16.094-88.879,41.373h-27.485v-16.55
	c0-12.853-10.42-23.273-23.273-23.273c-12.853,0-23.273,10.42-23.273,23.273v16.55h-27.485
	c-21.36-25.279-53.268-41.373-88.879-41.373C52.201,139.638,0,191.837,0,256s52.201,116.364,116.364,116.364
	c35.609,0,67.517-16.094,88.879-41.373h101.516c21.363,25.279,53.27,41.373,88.879,41.373C459.799,372.364,512,320.163,512,256
	S459.799,139.638,395.636,139.638z M170.505,300.02c-12.811,15.729-32.321,25.797-54.142,25.797
	c-38.498,0-69.818-31.32-69.818-69.818s31.32-69.817,69.818-69.817c21.821,0,41.331,10.069,54.142,25.797
	c9.792,12.02,15.677,27.344,15.677,44.02C186.182,272.676,180.297,287.998,170.505,300.02z M395.636,325.817
	c-21.82,0-41.331-10.069-54.142-25.797c-9.792-12.021-15.677-27.344-15.677-44.021c0-16.676,5.885-31.998,15.677-44.02
	c12.812-15.729,32.321-25.797,54.142-25.797c38.499,0,69.818,31.319,69.818,69.817C465.455,294.498,434.136,325.817,395.636,325.817
	z"/>
<g>
	<path style="fill:#FFFFFF;" d="M116.364,186.183c-38.498,0-69.818,31.319-69.818,69.817s31.32,69.818,69.818,69.818
		c21.821,0,41.331-10.069,54.142-25.797C180.297,288,186.182,272.677,186.182,256c0-16.676-5.885-31.998-15.677-44.02
		C157.694,196.251,138.184,186.183,116.364,186.183z"/>
	<path style="fill:#FFFFFF;" d="M395.636,186.183c-21.82,0-41.331,10.069-54.142,25.797c-9.792,12.02-15.677,27.342-15.677,44.018
		c0,16.677,5.885,32,15.677,44.021c12.812,15.729,32.321,25.797,54.142,25.797c38.499,0,69.818-31.32,69.818-69.818
		C465.455,217.502,434.136,186.183,395.636,186.183z"/>
</g>
<path style="fill:#B3D8F4;" d="M170.505,211.98c-12.811-15.729-32.321-25.799-54.142-25.799c-38.498,0-69.818,31.32-69.818,69.818
	s31.32,69.818,69.818,69.818c21.821,0,41.331-10.069,54.142-25.797C180.297,288,186.182,272.676,186.182,256
	C186.182,239.323,180.297,224,170.505,211.98z"/>
<path style="fill:#8CB7E8;" d="M46.545,256c0,38.498,31.32,69.818,69.818,69.818V186.182C77.866,186.182,46.545,217.502,46.545,256z
	"/>
<path style="fill:#FFFFFF;" d="M395.636,186.182c-21.82,0-41.331,10.069-54.142,25.797C331.703,224,325.818,239.323,325.818,256
	c0,16.676,5.885,32,15.677,44.021c12.811,15.728,32.321,25.797,54.142,25.797c38.498,0,69.818-31.32,69.818-69.818
	S434.134,186.182,395.636,186.182z"/>
<path style="fill:#57575C;" d="M256,141.188c-12.853,0-23.273,10.42-23.273,23.273v16.55h-27.485
	c-21.36-25.279-53.268-41.374-88.879-41.374C52.201,139.636,0,191.837,0,256s52.201,116.364,116.364,116.364
	c35.609,0,67.517-16.095,88.879-41.373h51.534V141.227C256.517,141.217,256.262,141.188,256,141.188z M170.505,300.02
	c-12.811,15.729-32.321,25.799-54.142,25.799c-38.498,0-69.818-31.32-69.818-69.818s31.32-69.818,69.818-69.818
	c21.821,0,41.331,10.069,54.142,25.797C180.297,224,186.182,239.323,186.182,256C186.182,272.676,180.297,288,170.505,300.02z"/>
<path style="fill:#BDFDFF;" d="M395.636,186.182c-21.82,0-41.331,10.069-54.142,25.797C331.703,224,325.818,239.323,325.818,256
	c0,16.676,5.885,32,15.677,44.021c12.811,15.728,32.321,25.797,54.142,25.797c38.498,0,69.818-31.32,69.818-69.818
	S434.134,186.182,395.636,186.182z"/>
<path style="fill:#9BC9FF;" d="M341.495,211.98c-9.792,12.02-15.677,27.342-15.677,44.02c0,16.676,5.885,32,15.677,44.021
	c12.811,15.728,32.321,25.797,54.142,25.797V186.182C373.816,186.182,354.306,196.251,341.495,211.98z"/>
<g>
</g>
<g>
</g>
<g>
</g>
<g>
</g>
<g>
</g>
<g>
</g>
<g>
</g>
<g>
</g>
<g>
</g>
<g>
</g>
<g>
</g>
<g>
</g>
<g>
</g>
<g>
</g>
<g>
</g>
</svg>
