<?xml version="1.0" encoding="iso-8859-1"?>
<!-- Generator: Adobe Illustrator 19.0.0, SVG Export Plug-In . SVG Version: 6.00 Build 0)  -->
<svg version="1.1" id="Layer_1" xmlns="http://www.w3.org/2000/svg" xmlns:xlink="http://www.w3.org/1999/xlink" x="0px" y="0px"
	 viewBox="0 0 512 512" style="enable-background:new 0 0 512 512;" xml:space="preserve">
<g>
	<path style="fill:#5286FA;" d="M139.641,302.511c-6.127,0-12.131,2.482-16.46,6.827c-4.329,4.329-6.813,10.318-6.813,16.446
		c0,6.128,2.484,12.133,6.813,16.462c4.329,4.329,10.333,6.811,16.46,6.811c6.113,0,12.119-2.482,16.448-6.811
		c4.329-4.329,6.825-10.333,6.825-16.462s-2.496-12.133-6.825-16.446C151.758,304.994,145.754,302.511,139.641,302.511z"/>
	<path style="fill:#5286FA;" d="M256.005,302.511c-6.127,0-12.131,2.482-16.46,6.811c-4.329,4.344-6.813,10.333-6.813,16.462
		s2.484,12.133,6.813,16.462c4.329,4.329,10.333,6.811,16.46,6.811c6.115,0,12.119-2.482,16.448-6.811
		c4.329-4.329,6.825-10.333,6.825-16.462s-2.496-12.116-6.825-16.462C268.124,304.994,262.118,302.511,256.005,302.511z"/>
	<path style="fill:#5286FA;" d="M388.816,309.322c-4.329-4.329-10.333-6.811-16.448-6.811c-6.127,0-12.131,2.482-16.46,6.827
		c-4.329,4.329-6.813,10.318-6.813,16.446c0,6.128,2.484,12.133,6.813,16.462c4.329,4.329,10.333,6.811,16.46,6.811
		c6.115,0,12.119-2.482,16.448-6.811c4.329-4.329,6.825-10.333,6.825-16.462S393.145,313.667,388.816,309.322z"/>
</g>
<path style="fill:#E0E0E2;" d="M380.121,170.636h-2.586C357.432,119.814,310.557,84.174,256,78.438
	c-5.112-0.538-10.285-0.833-15.515-0.833c-79.017,0-143.709,62.5-147.242,140.659C40.603,225.747,0,271.115,0,325.787
	c0,59.885,48.719,108.606,108.606,108.606H256h124.121c72.718,0,131.879-59.161,131.879-131.879S452.839,170.636,380.121,170.636z
	 M156.089,342.246c-4.329,4.329-10.333,6.811-16.448,6.811c-6.127,0-12.131-2.482-16.46-6.811
	c-4.329-4.329-6.813-10.333-6.813-16.462s2.484-12.117,6.813-16.446c4.329-4.344,10.333-6.827,16.46-6.827
	c6.113,0,12.119,2.482,16.448,6.827c4.329,4.313,6.825,10.318,6.825,16.446C162.914,331.913,160.417,337.917,156.089,342.246z
	 M272.452,342.246c-4.329,4.329-10.333,6.811-16.448,6.811c-0.002,0-0.003,0-0.005,0c-6.125-0.002-12.127-2.482-16.455-6.811
	c-4.329-4.329-6.813-10.333-6.813-16.462s2.484-12.117,6.813-16.462c4.329-4.329,10.33-6.81,16.455-6.811c0.002,0,0.003,0,0.005,0
	c6.113,0,12.119,2.482,16.448,6.811c4.329,4.344,6.825,10.333,6.825,16.462S276.781,337.917,272.452,342.246z M388.816,342.246
	c-4.329,4.329-10.333,6.811-16.448,6.811c-6.127,0-12.131-2.482-16.46-6.811c-4.329-4.329-6.813-10.333-6.813-16.462
	s2.484-12.117,6.813-16.446c4.329-4.344,10.333-6.827,16.46-6.827c6.113,0,12.119,2.482,16.448,6.811
	c4.329,4.344,6.825,10.333,6.825,16.462S393.145,337.917,388.816,342.246z"/>
<path style="fill:#FFA733;" d="M256.005,349.057c6.115,0,12.119-2.482,16.448-6.811c4.329-4.329,6.825-10.333,6.825-16.462
	s-2.496-12.116-6.825-16.462c-4.329-4.329-10.333-6.811-16.448-6.811c-0.002,0-0.003,0-0.005,0v46.545
	C256.002,349.057,256.003,349.057,256.005,349.057z"/>
<g>
	<path style="fill:#FF7956;" d="M139.641,302.511c-6.127,0-12.131,2.482-16.46,6.827c-4.329,4.329-6.813,10.318-6.813,16.446
		c0,6.128,2.484,12.133,6.813,16.462c4.329,4.329,10.333,6.811,16.46,6.811c6.113,0,12.119-2.482,16.448-6.811
		c4.329-4.329,6.825-10.333,6.825-16.462s-2.496-12.133-6.825-16.446C151.758,304.994,145.754,302.511,139.641,302.511z"/>
	<path style="fill:#FF7956;" d="M232.732,325.784c0,6.128,2.484,12.133,6.813,16.462c4.329,4.327,10.33,6.81,16.455,6.811v-46.545
		c-6.125,0.002-12.127,2.484-16.455,6.811C235.216,313.667,232.732,319.656,232.732,325.784z"/>
</g>
<path style="fill:#FFA733;" d="M372.368,302.511c-6.127,0-12.131,2.482-16.46,6.827c-4.329,4.329-6.813,10.318-6.813,16.446
	c0,6.128,2.484,12.133,6.813,16.462c4.329,4.329,10.333,6.811,16.46,6.811c6.115,0,12.119-2.482,16.448-6.811
	c4.329-4.329,6.825-10.333,6.825-16.462s-2.496-12.116-6.825-16.462C384.487,304.994,378.481,302.511,372.368,302.511z"/>
<path style="fill:#C6C5CA;" d="M239.545,342.246c-4.329-4.329-6.813-10.333-6.813-16.462s2.484-12.116,6.813-16.462
	c4.329-4.329,10.33-6.81,16.455-6.811V78.438c-5.112-0.538-10.285-0.833-15.515-0.833c-79.017,0-143.709,62.5-147.242,140.659
	C40.603,225.749,0,271.115,0,325.789c0,59.885,48.719,108.606,108.606,108.606H256v-85.338
	C249.875,349.055,243.873,346.573,239.545,342.246z M156.089,342.246c-4.329,4.329-10.333,6.811-16.448,6.811
	c-6.127,0-12.131-2.482-16.46-6.811c-4.329-4.329-6.813-10.333-6.813-16.462s2.484-12.116,6.813-16.446
	c4.329-4.344,10.333-6.827,16.46-6.827c6.113,0,12.119,2.482,16.448,6.827c4.329,4.313,6.825,10.318,6.825,16.446
	C162.914,331.913,160.417,337.917,156.089,342.246z"/>
<g>
</g>
<g>
</g>
<g>
</g>
<g>
</g>
<g>
</g>
<g>
</g>
<g>
</g>
<g>
</g>
<g>
</g>
<g>
</g>
<g>
</g>
<g>
</g>
<g>
</g>
<g>
</g>
<g>
</g>
</svg>
