<?xml version="1.0" encoding="iso-8859-1"?>
<!-- Generator: Adobe Illustrator 19.0.0, SVG Export Plug-In . SVG Version: 6.00 Build 0)  -->
<svg version="1.1" id="Layer_1" xmlns="http://www.w3.org/2000/svg" xmlns:xlink="http://www.w3.org/1999/xlink" x="0px" y="0px"
	 viewBox="0 0 512.002 512.002" style="enable-background:new 0 0 512.002 512.002;" xml:space="preserve">
<path style="fill:#95D6A6;" d="M498.238,283.594c-4.043-9.173-8.906-17.906-14.5-26.104c-5.587-8.184-11.899-15.835-18.845-22.86
	c-29.549-29.893-70.547-48.448-115.802-48.448c-76.445,0-140.747,52.928-158.216,124.061c-1.859,7.567-3.19,15.337-3.946,23.273
	c-0.487,5.128-0.748,10.322-0.748,15.576c0,2.58,0.067,5.145,0.186,7.697c4.034,86.269,75.475,155.212,162.723,155.212
	C438.919,512.001,512,438.92,512,349.092C512,325.805,507.079,303.649,498.238,283.594z M395.636,372.364h-23.273v23.273
	c0,12.853-10.42,23.273-23.273,23.273c-12.853,0-23.273-10.42-23.273-23.273v-23.273h-23.273c-12.853,0-23.273-10.42-23.273-23.273
	s10.42-23.273,23.273-23.273h23.273v-14.68v-8.592c0-12.853,10.42-23.273,23.273-23.273c12.71,0,23.024,10.195,23.251,22.851
	c0.003,0.141,0.022,0.279,0.022,0.422v23.273h23.273c12.853,0,23.273,10.42,23.273,23.273S408.489,372.364,395.636,372.364z"/>
<path style="fill:#368B4C;" d="M395.636,325.819h-23.273v-23.273c0-0.143-0.019-0.281-0.022-0.422
	c-0.227-12.656-10.541-22.851-23.251-22.851c-12.853,0-23.273,10.42-23.273,23.273v8.592v14.68h-23.273
	c-12.853,0-23.273,10.42-23.273,23.273s10.42,23.273,23.273,23.273h23.273v23.273c0,12.853,10.42,23.273,23.273,23.273
	c12.853,0,23.273-10.42,23.273-23.273v-23.273h23.273c12.853,0,23.273-10.42,23.273-23.273S408.489,325.819,395.636,325.819z"/>
<path style="fill:#E0E0E2;" d="M380.121,93.031h-2.586C357.432,42.21,310.557,6.568,256,0.834
	c-5.112-0.538-10.285-0.833-15.515-0.833c-79.017,0-143.709,62.5-147.242,140.659C40.603,148.143,0,193.509,0,248.183
	c0,59.885,48.719,108.606,108.606,108.606h77.762c-0.119-2.551-0.186-5.117-0.186-7.697c0-5.253,0.261-10.448,0.748-15.576
	c0.756-7.936,2.087-15.706,3.945-23.273c9.564-38.94,33.182-72.398,65.125-94.731c26.407-18.463,58.495-29.33,93.091-29.33
	c45.255,0,86.253,18.555,115.804,48.449c6.946,7.025,13.258,14.674,18.845,22.86c5.593,8.198,10.456,16.932,14.5,26.104
	c9.028-18.154,13.762-38.198,13.762-58.685C512,152.192,452.839,93.031,380.121,93.031z"/>
<path style="fill:#C6C5CA;" d="M240.485,0.001c-79.017,0-143.709,62.5-147.242,140.659C40.603,148.143,0,193.509,0,248.183
	c0,59.885,48.719,108.606,108.606,108.606h77.762c-0.119-2.552-0.186-5.117-0.186-7.697c0-5.253,0.261-10.448,0.748-15.576
	c0.756-7.936,2.087-15.708,3.945-23.273c9.564-38.94,33.182-72.398,65.125-94.731V0.834C250.888,0.296,245.715,0.001,240.485,0.001z
	"/>
<path style="fill:#64C37D;" d="M325.818,395.637v-23.273h-23.273c-12.853,0-23.273-10.42-23.273-23.273s10.42-23.273,23.273-23.273
	h23.273v-14.68v-8.592c0-12.853,10.42-23.273,23.273-23.273v-93.091c-76.443,0-140.747,52.928-158.216,124.061
	c-1.859,7.565-3.19,15.337-3.946,23.273c-0.487,5.128-0.748,10.322-0.748,15.576c0,2.58,0.067,5.145,0.186,7.697
	c4.034,86.269,75.475,155.212,162.723,155.212V418.91C336.238,418.91,325.818,408.49,325.818,395.637z"/>
<g>
</g>
<g>
</g>
<g>
</g>
<g>
</g>
<g>
</g>
<g>
</g>
<g>
</g>
<g>
</g>
<g>
</g>
<g>
</g>
<g>
</g>
<g>
</g>
<g>
</g>
<g>
</g>
<g>
</g>
</svg>
