<?xml version="1.0" encoding="iso-8859-1"?>
<!-- Generator: Adobe Illustrator 19.0.0, SVG Export Plug-In . SVG Version: 6.00 Build 0)  -->
<svg version="1.1" id="Layer_1" xmlns="http://www.w3.org/2000/svg" xmlns:xlink="http://www.w3.org/1999/xlink" x="0px" y="0px"
	 viewBox="0 0 512 512" style="enable-background:new 0 0 512 512;" xml:space="preserve">
<path style="fill:#E0E0E2;" d="M380.121,170.636h-2.586C357.432,119.814,310.557,84.174,256,78.438
	c-5.112-0.538-10.285-0.833-15.515-0.833c-79.017,0-143.709,62.5-147.242,140.659C40.603,225.747,0,271.115,0,325.787
	c0,59.885,48.719,108.606,108.606,108.606H256h124.121c72.718,0,131.879-59.161,131.879-131.879S452.839,170.636,380.121,170.636z"
	/>
<path style="fill:#C6C5CA;" d="M240.485,77.607c-79.017,0-143.709,62.5-147.242,140.659C40.603,225.749,0,271.115,0,325.789
	c0,59.885,48.719,108.606,108.606,108.606H256V78.438C250.888,77.902,245.715,77.607,240.485,77.607z"/>
<g>
</g>
<g>
</g>
<g>
</g>
<g>
</g>
<g>
</g>
<g>
</g>
<g>
</g>
<g>
</g>
<g>
</g>
<g>
</g>
<g>
</g>
<g>
</g>
<g>
</g>
<g>
</g>
<g>
</g>
</svg>
