<?xml version="1.0" encoding="iso-8859-1"?>
<!-- Generator: Adobe Illustrator 19.0.0, SVG Export Plug-In . SVG Version: 6.00 Build 0)  -->
<svg version="1.1" id="Layer_1" xmlns="http://www.w3.org/2000/svg" xmlns:xlink="http://www.w3.org/1999/xlink" x="0px" y="0px"
	 viewBox="0 0 512 512" style="enable-background:new 0 0 512 512;" xml:space="preserve">
<path style="fill:#FFA733;" d="M272.46,146.46c-0.545-0.545-1.117-1.058-1.713-1.547c-0.259-0.213-0.538-0.402-0.807-0.604
	c-0.34-0.254-0.673-0.518-1.021-0.751c-0.324-0.217-0.667-0.408-1.001-0.608c-0.316-0.189-0.628-0.389-0.951-0.562
	c-0.341-0.182-0.695-0.338-1.047-0.504c-0.338-0.16-0.673-0.33-1.016-0.472c-0.338-0.141-0.689-0.254-1.035-0.379
	c-0.371-0.133-0.74-0.276-1.116-0.389c-0.343-0.104-0.694-0.18-1.043-0.268c-0.388-0.098-0.776-0.206-1.167-0.285
	c-0.396-0.078-0.801-0.126-1.202-0.183c-0.349-0.051-0.697-0.116-1.049-0.152c-0.732-0.071-1.474-0.11-2.225-0.112
	c-0.025-0.002-0.045-0.003-0.07-0.003s-0.045,0.003-0.07,0.003c-0.749,0.002-1.493,0.04-2.225,0.112
	c-0.352,0.034-0.7,0.101-1.049,0.152c-0.403,0.057-0.808,0.105-1.202,0.183c-0.391,0.078-0.779,0.188-1.167,0.285
	c-0.349,0.088-0.7,0.164-1.043,0.268c-0.375,0.113-0.743,0.258-1.116,0.389c-0.346,0.124-0.697,0.237-1.035,0.379
	c-0.344,0.141-0.68,0.312-1.016,0.472c-0.352,0.164-0.706,0.323-1.047,0.504c-0.323,0.172-0.635,0.372-0.951,0.562
	c-0.335,0.2-0.676,0.393-1.001,0.608c-0.349,0.233-0.681,0.496-1.021,0.751c-0.268,0.202-0.548,0.391-0.807,0.604
	c-0.596,0.489-1.168,1.002-1.713,1.547l-69.814,69.815c-9.089,9.087-9.089,23.825,0,32.912c9.087,9.089,23.824,9.089,32.912,0
	l30.092-30.09v91.145v23.273v23.273v131.939C232.727,501.58,243.147,512,256,512c12.853,0,23.273-10.42,23.273-23.273V356.788
	v-23.273v-23.273v-91.145l30.09,30.089c4.544,4.544,10.501,6.817,16.455,6.817s11.913-2.271,16.455-6.817
	c9.089-9.087,9.089-23.824,0-32.912L272.46,146.46z"/>
<path style="fill:#E0E0E2;" d="M380.121,93.03h-2.586C357.432,42.209,310.557,6.568,256,0.833C250.888,0.295,245.715,0,240.485,0
	C161.468,0,96.776,62.5,93.243,140.659C40.603,148.142,0,193.508,0,248.182c0,59.885,48.719,108.606,108.606,108.606h124.121
	v-23.273v-23.273v-91.145l-30.09,30.089c-9.087,9.089-23.824,9.089-32.912,0c-9.089-9.087-9.089-23.825,0-32.912l69.814-69.815
	c0.545-0.545,1.117-1.058,1.713-1.547c0.262-0.216,0.538-0.402,0.807-0.604c0.34-0.254,0.67-0.515,1.021-0.751
	c0.327-0.219,0.667-0.408,1.002-0.608c0.317-0.189,0.625-0.388,0.951-0.562c0.344-0.183,0.697-0.338,1.047-0.504
	c0.338-0.16,0.67-0.329,1.016-0.472c0.341-0.141,0.689-0.254,1.035-0.379c0.369-0.133,0.737-0.276,1.116-0.391
	c0.346-0.104,0.694-0.18,1.043-0.268c0.388-0.098,0.771-0.206,1.167-0.285c0.399-0.079,0.802-0.126,1.202-0.183
	c0.349-0.051,0.694-0.116,1.049-0.152c0.74-0.073,1.482-0.11,2.225-0.112c0.025,0,0.045-0.003,0.07-0.003
	c0.025,0,0.045,0.003,0.07,0.003c0.743,0.002,1.485,0.039,2.225,0.112c0.355,0.034,0.7,0.101,1.049,0.152
	c0.402,0.057,0.805,0.104,1.202,0.183c0.396,0.078,0.779,0.186,1.167,0.285c0.349,0.088,0.697,0.163,1.043,0.268
	c0.379,0.115,0.745,0.258,1.116,0.391c0.346,0.124,0.694,0.237,1.035,0.379c0.348,0.143,0.68,0.312,1.016,0.472
	c0.351,0.166,0.703,0.321,1.047,0.504c0.326,0.174,0.635,0.372,0.951,0.562c0.335,0.2,0.675,0.389,1.002,0.608
	c0.352,0.236,0.681,0.496,1.021,0.751c0.268,0.202,0.545,0.389,0.807,0.604c0.596,0.489,1.168,1.002,1.713,1.547l69.814,69.815
	c9.089,9.087,9.089,23.824,0,32.912c-4.544,4.544-10.501,6.817-16.455,6.817s-11.913-2.271-16.455-6.817l-30.095-30.089v91.145
	v23.273v23.273h100.848c72.718,0,131.879-59.161,131.879-131.879S452.839,93.03,380.121,93.03z"/>
<path style="fill:#C6C5CA;" d="M240.485,0C161.468,0,96.776,62.5,93.243,140.659C40.603,148.142,0,193.508,0,248.182
	c0,59.885,48.719,108.606,108.606,108.606h124.121v-23.273v-23.273v-91.145l-30.09,30.089c-9.087,9.089-23.824,9.089-32.912,0
	c-9.089-9.087-9.089-23.824,0-32.912l69.814-69.815c0.545-0.545,1.117-1.058,1.713-1.547c0.262-0.216,0.538-0.402,0.807-0.604
	c0.34-0.254,0.67-0.515,1.021-0.751c0.327-0.219,0.667-0.408,1.001-0.608c0.316-0.189,0.625-0.388,0.951-0.562
	c0.344-0.183,0.697-0.338,1.047-0.504c0.338-0.16,0.67-0.329,1.016-0.472c0.341-0.141,0.689-0.254,1.035-0.379
	c0.369-0.133,0.737-0.276,1.116-0.389c0.346-0.104,0.694-0.18,1.043-0.268c0.388-0.098,0.771-0.206,1.167-0.285
	c0.399-0.079,0.802-0.126,1.202-0.183c0.349-0.051,0.694-0.116,1.049-0.152c0.74-0.073,1.482-0.11,2.225-0.112
	c0.025-0.002,0.045-0.003,0.07-0.003V0.833C250.888,0.295,245.715,0,240.485,0z"/>
<path style="fill:#FF7956;" d="M255.93,139.643c-0.749,0.002-1.493,0.04-2.225,0.112c-0.352,0.034-0.7,0.101-1.049,0.152
	c-0.403,0.057-0.808,0.106-1.202,0.183c-0.391,0.078-0.779,0.188-1.167,0.285c-0.349,0.088-0.7,0.164-1.043,0.268
	c-0.375,0.113-0.743,0.258-1.116,0.391c-0.346,0.124-0.697,0.237-1.035,0.379c-0.344,0.141-0.68,0.312-1.016,0.472
	c-0.352,0.166-0.706,0.323-1.047,0.504c-0.323,0.172-0.635,0.372-0.951,0.562c-0.335,0.2-0.678,0.393-1.002,0.608
	c-0.349,0.233-0.681,0.496-1.021,0.751c-0.268,0.202-0.548,0.391-0.807,0.604c-0.596,0.489-1.168,1.002-1.713,1.547l-69.814,69.815
	c-9.089,9.087-9.089,23.824,0,32.912c9.087,9.089,23.824,9.089,32.912,0l30.092-30.09v91.145v23.273v23.273v131.939
	C232.727,501.58,243.147,512,256,512V139.639C255.975,139.639,255.955,139.643,255.93,139.643z"/>
<g>
</g>
<g>
</g>
<g>
</g>
<g>
</g>
<g>
</g>
<g>
</g>
<g>
</g>
<g>
</g>
<g>
</g>
<g>
</g>
<g>
</g>
<g>
</g>
<g>
</g>
<g>
</g>
<g>
</g>
</svg>
