<?xml version="1.0" encoding="iso-8859-1"?>
<!-- Generator: Adobe Illustrator 19.0.0, SVG Export Plug-In . SVG Version: 6.00 Build 0)  -->
<svg version="1.1" id="Layer_1" xmlns="http://www.w3.org/2000/svg" xmlns:xlink="http://www.w3.org/1999/xlink" x="0px" y="0px"
	 viewBox="0 0 512.002 512.002" style="enable-background:new 0 0 512.002 512.002;" xml:space="preserve">
<path style="fill:#9BC9FF;" d="M498.236,283.594c-4.042-9.173-8.904-17.906-14.499-26.104c-5.587-8.184-11.899-15.835-18.845-22.86
	c-29.547-29.893-70.547-48.448-115.802-48.448c-76.445,0-140.747,52.928-158.216,124.061c-1.859,7.567-3.19,15.337-3.946,23.273
	c-0.487,5.128-0.748,10.322-0.748,15.576c0,2.58,0.067,5.145,0.186,7.697c4.034,86.269,75.475,155.212,162.723,155.212
	C438.919,512.001,512,438.92,512,349.092C512,325.805,507.079,303.649,498.236,283.594z M398.459,365.547
	c9.089,9.087,9.089,23.825,0,32.912c-4.544,4.544-10.501,6.817-16.455,6.817s-11.913-2.271-16.455-6.817l-16.457-16.455
	l-16.455,16.457c-4.544,4.544-10.501,6.817-16.455,6.817s-11.913-2.271-16.455-6.816c-9.089-9.089-9.089-23.825,0-32.912
	l16.454-16.458l-16.455-16.455c-4.208-4.206-6.44-9.626-6.754-15.132c-0.363-6.389,1.871-12.898,6.754-17.779
	c9.087-9.089,23.824-9.089,32.912,0l8.456,8.456l8,8l11.846-11.846l4.611-4.611c8.287-8.287,21.256-8.993,30.371-2.166
	c0.881,0.659,1.739,1.365,2.541,2.166c9.089,9.087,9.089,23.823,0,32.912l-16.457,16.455L398.459,365.547z"/>
<path style="fill:#1A6FB0;" d="M398.459,299.724c-0.802-0.802-1.659-1.507-2.541-2.166c-9.115-6.825-22.084-6.121-30.371,2.166
	l-4.611,4.611l-11.844,11.844l-8-8l-8.456-8.456c-9.087-9.089-23.824-9.089-32.912,0c-4.881,4.881-7.117,11.39-6.754,17.779
	c0.312,5.508,2.546,10.926,6.754,15.132l16.455,16.457l-16.455,16.457c-9.089,9.089-9.089,23.824,0,32.912
	c4.544,4.544,10.501,6.816,16.455,6.816c5.956,0,11.913-2.271,16.457-6.817l16.455-16.455l16.455,16.455
	c4.544,4.544,10.501,6.817,16.457,6.817c5.956,0,11.913-2.271,16.455-6.817c9.089-9.087,9.089-23.824,0-32.912l-16.455-16.455
	l16.455-16.455C407.549,323.548,407.549,308.811,398.459,299.724z"/>
<path style="fill:#E0E0E2;" d="M380.121,93.031h-2.586C357.432,42.21,310.557,6.568,256,0.834
	c-5.112-0.538-10.285-0.833-15.515-0.833c-79.017,0-143.709,62.5-147.242,140.659C40.603,148.143,0,193.509,0,248.183
	c0,59.885,48.719,108.606,108.606,108.606h77.762c-0.119-2.551-0.186-5.117-0.186-7.697c0-5.253,0.261-10.448,0.748-15.576
	c0.756-7.936,2.087-15.706,3.945-23.273c9.564-38.94,33.182-72.398,65.125-94.731c26.407-18.463,58.495-29.33,93.091-29.33
	c45.255,0,86.255,18.555,115.804,48.449c6.946,7.025,13.258,14.674,18.845,22.86c5.593,8.198,10.456,16.932,14.499,26.104
	c9.03-18.154,13.763-38.198,13.763-58.685C512,152.192,452.839,93.031,380.121,93.031z"/>
<path style="fill:#C6C5CA;" d="M240.485,0.001c-79.017,0-143.709,62.5-147.242,140.659C40.603,148.143,0,193.509,0,248.183
	c0,59.885,48.719,108.606,108.606,108.606h77.762c-0.119-2.552-0.186-5.117-0.186-7.697c0-5.253,0.261-10.448,0.748-15.576
	c0.756-7.936,2.087-15.708,3.945-23.273c9.564-38.94,33.182-72.398,65.125-94.731V0.834C250.888,0.296,245.715,0.001,240.485,0.001z
	"/>
<path style="fill:#57A4FF;" d="M332.636,398.461c-4.544,4.544-10.501,6.817-16.457,6.817c-5.956,0-11.913-2.271-16.455-6.816
	c-9.089-9.089-9.089-23.825,0-32.912l16.455-16.458l-16.455-16.455c-4.208-4.208-6.44-9.626-6.754-15.132
	c-0.363-6.389,1.871-12.898,6.754-17.779c9.087-9.089,23.824-9.089,32.912,0l8.456,8.456l8,8V186.183
	c-76.443,0-140.747,52.928-158.216,124.061c-1.859,7.565-3.19,15.337-3.946,23.273c-0.487,5.128-0.748,10.322-0.748,15.576
	c0,2.58,0.067,5.145,0.186,7.697c4.034,86.269,75.475,155.212,162.723,155.212V382.004L332.636,398.461z"/>
<g>
</g>
<g>
</g>
<g>
</g>
<g>
</g>
<g>
</g>
<g>
</g>
<g>
</g>
<g>
</g>
<g>
</g>
<g>
</g>
<g>
</g>
<g>
</g>
<g>
</g>
<g>
</g>
<g>
</g>
</svg>
