<?xml version="1.0" encoding="iso-8859-1"?>
<!-- Generator: Adobe Illustrator 19.0.0, SVG Export Plug-In . SVG Version: 6.00 Build 0)  -->
<svg version="1.1" id="Layer_1" xmlns="http://www.w3.org/2000/svg" xmlns:xlink="http://www.w3.org/1999/xlink" x="0px" y="0px"
	 viewBox="0 0 512 512" style="enable-background:new 0 0 512 512;" xml:space="preserve">
<g>
	<path style="fill:#5286FA;" d="M225.91,255.058c-9.09-9.089-23.825-9.087-32.914,0.002l-31.03,31.033
		c-4.364,4.364-6.816,10.283-6.816,16.455c0,6.173,2.453,12.093,6.817,16.455l31.03,31.027c4.546,4.544,10.501,6.817,16.455,6.816
		c5.956,0,11.914-2.273,16.457-6.817c9.087-9.089,9.086-23.824-0.002-32.912l-14.573-14.572l14.576-14.576
		C235,278.882,234.999,264.145,225.91,255.058z"/>
	<path style="fill:#5286FA;" d="M350.031,286.087l-31.078-31.077c-9.087-9.087-23.823-9.087-32.912,0
		c-9.089,9.089-9.087,23.824,0,32.912l14.623,14.621l-14.576,14.577c-9.087,9.089-9.086,23.824,0.002,32.912
		c4.546,4.544,10.501,6.816,16.455,6.816s11.914-2.273,16.457-6.817l31.03-31.033C359.121,309.91,359.12,295.174,350.031,286.087z"
		/>
</g>
<path style="fill:#E0E0E2;" d="M380.121,170.636h-2.586C357.432,119.814,310.557,84.174,256,78.44
	c-5.112-0.538-10.285-0.833-15.515-0.833c-79.017,0-143.709,62.498-147.242,140.657C40.603,225.747,0,271.113,0,325.787
	c0,59.885,48.719,108.606,108.606,108.606H256h124.121c72.718,0,131.879-59.161,131.879-131.879S452.839,170.636,380.121,170.636z
	 M225.91,317.119c9.087,9.087,9.089,23.824,0.002,32.912c-4.543,4.544-10.501,6.817-16.457,6.817
	c-5.956,0-11.911-2.271-16.455-6.816l-31.03-31.027c-4.364-4.364-6.817-10.283-6.817-16.455c0-6.172,2.451-12.093,6.816-16.457
	l31.03-31.033c9.087-9.089,23.822-9.09,32.914-0.002c9.087,9.087,9.089,23.824,0.002,32.912l-14.576,14.576L225.91,317.119z
	 M350.033,318.999l-31.03,31.033c-4.544,4.544-10.502,6.817-16.457,6.817s-11.911-2.271-16.455-6.816
	c-9.087-9.087-9.089-23.824-0.002-32.912l14.577-14.578l-14.623-14.621c-9.087-9.089-9.089-23.825,0-32.912
	c9.087-9.089,23.824-9.089,32.912,0l31.078,31.077C359.12,295.174,359.121,309.91,350.033,318.999z"/>
<path style="fill:#FF7956;" d="M225.91,255.058c-9.09-9.089-23.825-9.087-32.914,0.002l-31.03,31.033
	c-4.364,4.364-6.816,10.283-6.816,16.455c0,6.173,2.453,12.093,6.817,16.455l31.03,31.027c4.546,4.544,10.501,6.817,16.455,6.816
	c5.956,0,11.914-2.273,16.457-6.817c9.087-9.089,9.086-23.824-0.002-32.912l-14.573-14.572l14.576-14.576
	C235,278.882,234.999,264.145,225.91,255.058z"/>
<path style="fill:#FFA733;" d="M318.953,255.009c-9.087-9.087-23.823-9.087-32.912,0c-9.089,9.089-9.087,23.824,0,32.912
	l14.623,14.621l-14.576,14.577c-9.087,9.089-9.086,23.823,0.002,32.912c4.546,4.544,10.501,6.816,16.455,6.816
	s11.914-2.273,16.457-6.817l31.03-31.033c9.087-9.089,9.086-23.823-0.002-32.912L318.953,255.009z"/>
<path style="fill:#C6C5CA;" d="M240.485,77.607c-79.017,0-143.709,62.498-147.242,140.657C40.603,225.747,0,271.113,0,325.787
	c0,59.885,48.719,108.606,108.606,108.606H256V78.44C250.888,77.902,245.715,77.607,240.485,77.607z M225.91,317.119
	c9.087,9.087,9.089,23.824,0.002,32.912c-4.543,4.544-10.501,6.817-16.457,6.817c-5.956,0-11.911-2.271-16.455-6.816l-31.03-31.027
	c-4.364-4.364-6.817-10.283-6.817-16.455c0-6.172,2.451-12.091,6.816-16.455l31.03-31.033c9.087-9.089,23.822-9.09,32.914-0.002
	c9.087,9.087,9.089,23.824,0.002,32.912l-14.576,14.576L225.91,317.119z"/>
<g>
</g>
<g>
</g>
<g>
</g>
<g>
</g>
<g>
</g>
<g>
</g>
<g>
</g>
<g>
</g>
<g>
</g>
<g>
</g>
<g>
</g>
<g>
</g>
<g>
</g>
<g>
</g>
<g>
</g>
</svg>
