<?xml version="1.0" encoding="iso-8859-1"?>
<!-- Generator: Adobe Illustrator 19.0.0, SVG Export Plug-In . SVG Version: 6.00 Build 0)  -->
<svg version="1.1" id="Layer_1" xmlns="http://www.w3.org/2000/svg" xmlns:xlink="http://www.w3.org/1999/xlink" x="0px" y="0px"
	 viewBox="0 0 512 512" style="enable-background:new 0 0 512 512;" xml:space="preserve">
<path style="fill:#ACABB1;" d="M402.874,74.442C383.876,29.834,339.797,0,290.095,0c-67.596,0-122.591,54.992-122.591,122.588
	v52.007c7.385-4.226,15.163-7.837,23.273-10.75c7.497-2.693,15.273-4.791,23.273-6.245c8.578-1.559,17.413-2.385,26.436-2.385
	c61.061,0,115.063,37.446,137.05,93.029h2.586c21.558,0,41.903,5.233,59.889,14.443c7.807,3.998,15.163,8.746,21.976,14.158
	C492.069,257.151,512,223.173,512,184.61C512,124.214,463.141,75.011,402.874,74.442z"/>
<path style="fill:#E0E0E2;" d="M461.985,276.841c-6.813-5.412-14.168-10.159-21.976-14.158
	c-17.985-9.208-38.33-14.442-59.889-14.442h-2.586c-20.103-50.821-66.977-86.461-121.535-92.196
	c-5.112-0.538-10.285-0.833-15.515-0.833c-9.024,0-17.858,0.824-26.436,2.385c-8,1.455-15.776,3.553-23.273,6.245
	c-8.11,2.914-15.888,6.524-23.273,10.75c-42.581,24.371-71.914,69.365-74.26,121.277C40.603,303.354,0,348.72,0,403.394
	C0,463.279,48.719,512,108.606,512H256h124.121C452.839,512,512,452.839,512,380.121C512,338.317,492.424,301.022,461.985,276.841z"
	/>
<path style="fill:#C6C5CA;" d="M240.485,155.214c-9.024,0-17.858,0.824-26.436,2.385c-8,1.455-15.776,3.553-23.273,6.245
	c-8.11,2.914-15.888,6.524-23.273,10.75c-42.581,24.371-71.913,69.365-74.26,121.277C40.603,303.354,0,348.72,0,403.394
	C0,463.279,48.719,512,108.606,512H256V156.047C250.888,155.508,245.715,155.214,240.485,155.214z"/>
<g>
</g>
<g>
</g>
<g>
</g>
<g>
</g>
<g>
</g>
<g>
</g>
<g>
</g>
<g>
</g>
<g>
</g>
<g>
</g>
<g>
</g>
<g>
</g>
<g>
</g>
<g>
</g>
<g>
</g>
</svg>
