<?xml version="1.0" encoding="iso-8859-1"?>
<!-- Generator: Adobe Illustrator 19.0.0, SVG Export Plug-In . SVG Version: 6.00 Build 0)  -->
<svg version="1.1" id="Layer_1" xmlns="http://www.w3.org/2000/svg" xmlns:xlink="http://www.w3.org/1999/xlink" x="0px" y="0px"
	 viewBox="0 0 512.001 512.001" style="enable-background:new 0 0 512.001 512.001;" xml:space="preserve">
<path style="fill:#A9A8AE;" d="M424.498,181.295l-60.076-24.885l24.885-60.077c4.581-11.06-0.672-23.739-11.731-28.32L217.373,1.656
	c-11.056-4.581-23.739,0.67-28.32,11.731l-24.885,60.077l-60.075-24.885c-11.063-4.582-23.74,0.67-28.321,11.731
	s0.672,23.739,11.731,28.32l80.102,33.179l139.63,57.837l0.169,0.071h-8.052h-43.351H212.65H169.3h-21.675h-43.351v310.61
	c0,11.971,9.705,21.675,21.675,21.675h130.052h130.052c11.971,0,21.675-9.705,21.675-21.675V221.271l0.181,0.075
	c2.714,1.124,5.521,1.656,8.286,1.656c8.505,0,16.577-5.039,20.034-13.387C440.81,198.555,435.559,185.875,424.498,181.295z
	 M204.22,90.052l16.589-40.05L340.96,99.77l-16.589,40.05L204.22,90.052z"/>
<path style="fill:#57575C;" d="M212.65,179.714H169.3h-21.675h-43.351v310.61c0,11.971,9.705,21.675,21.675,21.675h130.052V179.714
	H212.65z"/>
<path style="fill:#77757F;" d="M424.498,181.295l-60.076-24.885l24.885-60.077c4.581-11.06-0.672-23.739-11.731-28.32L217.373,1.656
	c-11.056-4.581-23.739,0.67-28.32,11.731l-24.885,60.077l-60.075-24.885c-11.063-4.582-23.74,0.67-28.321,11.731
	s0.672,23.739,11.731,28.32l80.102,33.179l139.63,57.837l0.169,0.071l100.325,41.555l0.181,0.075
	c2.714,1.124,5.521,1.656,8.286,1.656c8.505,0,16.577-5.039,20.034-13.387C440.81,198.555,435.559,185.875,424.498,181.295z
	 M324.371,139.82L204.22,90.052l16.589-40.05L340.96,99.77L324.371,139.82z"/>
<path style="fill:#57575C;" d="M204.22,90.052l16.589-40.05l57.802,23.943l16.527-40.078L217.373,1.656
	c-11.056-4.581-23.739,0.67-28.32,11.731l-24.885,60.077l-60.075-24.885c-11.063-4.582-23.74,0.67-28.321,11.731
	s0.672,23.739,11.731,28.32l80.102,33.179l77.956,32.291l16.525-40.076L204.22,90.052z"/>
<g>
</g>
<g>
</g>
<g>
</g>
<g>
</g>
<g>
</g>
<g>
</g>
<g>
</g>
<g>
</g>
<g>
</g>
<g>
</g>
<g>
</g>
<g>
</g>
<g>
</g>
<g>
</g>
<g>
</g>
</svg>
