<?xml version="1.0" encoding="iso-8859-1"?>
<!-- Generator: Adobe Illustrator 19.0.0, SVG Export Plug-In . SVG Version: 6.00 Build 0)  -->
<svg version="1.1" id="Layer_1" xmlns="http://www.w3.org/2000/svg" xmlns:xlink="http://www.w3.org/1999/xlink" x="0px" y="0px"
	 viewBox="0 0 512 512" style="enable-background:new 0 0 512 512;" xml:space="preserve">
<path id="SVGCleanerId_0" style="fill:#57575C;" d="M467.862,105.931h-52.966h-26.483V26.483C388.414,11.857,376.557,0,361.931,0
	H150.069c-14.626,0-26.483,11.857-26.483,26.483v79.448H97.103H44.138c-14.626,0-26.483,11.857-26.483,26.483
	c0,14.626,11.857,26.483,26.483,26.483h26.483v326.621c0,14.626,11.857,26.483,26.483,26.483H256V158.897h52.966h52.966h26.483
	h52.966h26.483c14.626,0,26.483-11.857,26.483-26.483C494.345,117.788,482.488,105.931,467.862,105.931z M335.448,105.931h-26.483
	H203.034h-26.483V52.966h158.897V105.931z"/>
<path style="fill:#A9A8AE;" d="M361.931,158.897h-52.966H256V512h158.897c14.626,0,26.483-11.857,26.483-26.483V158.897h-52.966
	H361.931z"/>
<path id="SVGCleanerId_1" style="fill:#77757F;" d="M335.448,52.966v52.966h-26.483H256v52.966h52.966h52.966h26.483h52.966h26.483
	c14.626,0,26.483-11.857,26.483-26.483c0-14.626-11.857-26.483-26.483-26.483h-52.966h-26.483V26.483
	C388.414,11.857,376.557,0,361.931,0H256v52.966H335.448z"/>
<path style="fill:#A9A8AE;" d="M467.862,105.931h-52.966h-26.483V26.483C388.414,11.857,376.557,0,361.931,0H256H150.069
	c-14.626,0-26.483,11.857-26.483,26.483v79.448H97.103H44.138c-14.626,0-26.483,11.857-26.483,26.483
	c0,14.626,11.857,26.483,26.483,26.483h26.483v326.621c0,14.626,11.857,26.483,26.483,26.483H256h158.897
	c14.626,0,26.483-11.857,26.483-26.483V158.897h26.483c14.626,0,26.483-11.857,26.483-26.483
	C494.345,117.788,482.488,105.931,467.862,105.931z M203.034,105.931h-26.483V52.966H256h79.448v52.966h-26.483H256H203.034z"/>
<g>
	<path id="SVGCleanerId_0_1_" style="fill:#57575C;" d="M467.862,105.931h-52.966h-26.483V26.483
		C388.414,11.857,376.557,0,361.931,0H150.069c-14.626,0-26.483,11.857-26.483,26.483v79.448H97.103H44.138
		c-14.626,0-26.483,11.857-26.483,26.483c0,14.626,11.857,26.483,26.483,26.483h26.483v326.621
		c0,14.626,11.857,26.483,26.483,26.483H256V158.897h52.966h52.966h26.483h52.966h26.483c14.626,0,26.483-11.857,26.483-26.483
		C494.345,117.788,482.488,105.931,467.862,105.931z M335.448,105.931h-26.483H203.034h-26.483V52.966h158.897V105.931z"/>
</g>
<g>
	<path id="SVGCleanerId_1_1_" style="fill:#77757F;" d="M335.448,52.966v52.966h-26.483H256v52.966h52.966h52.966h26.483h52.966
		h26.483c14.626,0,26.483-11.857,26.483-26.483c0-14.626-11.857-26.483-26.483-26.483h-52.966h-26.483V26.483
		C388.414,11.857,376.557,0,361.931,0H256v52.966H335.448z"/>
</g>
<g>
</g>
<g>
</g>
<g>
</g>
<g>
</g>
<g>
</g>
<g>
</g>
<g>
</g>
<g>
</g>
<g>
</g>
<g>
</g>
<g>
</g>
<g>
</g>
<g>
</g>
<g>
</g>
<g>
</g>
</svg>
