<?xml version="1.0" encoding="iso-8859-1"?>
<!-- Generator: Adobe Illustrator 19.0.0, SVG Export Plug-In . SVG Version: 6.00 Build 0)  -->
<svg version="1.1" id="Layer_1" xmlns="http://www.w3.org/2000/svg" xmlns:xlink="http://www.w3.org/1999/xlink" x="0px" y="0px"
	 viewBox="0 0 512 512" style="enable-background:new 0 0 512 512;" xml:space="preserve">
<g>
	<path style="fill:#77757F;" d="M507.926,242.846c-4.538-6.623-112.732-162.202-251.921-162.202c-0.002,0-0.003,0-0.005,0
		c-40.139,0.002-77.689,12.949-110.927,31.516l34.397,34.397c23.9-11.726,49.743-19.368,76.53-19.368c0.002,0,0.003,0,0.005,0
		c93.494,0,175.954,93.615,203.647,128.81c-15.008,19.074-46.088,55.279-86.278,84.463l33.322,33.322
		c59.842-45.048,98.555-100.724,101.232-104.63C513.358,261.225,513.358,250.772,507.926,242.846z"/>
	<path style="fill:#77757F;" d="M256.005,384.811c-0.002,0-0.003,0-0.005,0c-93.532-0.003-175.999-93.657-203.669-128.833
		c14.974-19.088,46.007-55.324,86.224-84.511l-33.252-33.251C45.458,183.264,6.749,238.942,4.073,242.847
		c-5.43,7.927-5.43,18.378,0,26.306c4.538,6.622,112.716,162.2,251.927,162.203c0.002,0,0.003,0,0.005,0
		c40.135,0,77.683-12.947,110.922-31.517l-34.447-34.447C308.572,377.148,282.742,384.811,256.005,384.811z"/>
</g>
<path style="fill:#FFFFFF;" d="M52.333,255.978c27.67,35.176,110.139,128.833,203.672,128.833c26.736,0,52.567-7.663,76.476-19.419
	L138.556,171.468C98.34,200.655,67.306,236.891,52.333,255.978z"/>
<path style="fill:#2633D8;" d="M406.694,373.781l-33.322-33.322L179.47,146.557l-34.397-34.397L39.73,6.817
	c-9.087-9.089-23.824-9.089-32.912,0c-9.089,9.087-9.089,23.824,0,32.912l98.487,98.487l33.254,33.252l193.924,193.924
	l34.447,34.447l105.343,105.345c4.544,4.544,10.499,6.816,16.455,6.816c5.956,0,11.913-2.271,16.455-6.817
	c9.089-9.087,9.089-23.824,0-32.912L406.694,373.781z"/>
<g>
	<path style="fill:#57575C;" d="M179.47,146.557c23.9-11.726,49.743-19.368,76.53-19.368V80.644
		c-40.139,0.002-77.689,12.949-110.927,31.516L179.47,146.557z"/>
	<path style="fill:#57575C;" d="M52.333,255.978c14.974-19.088,46.007-55.324,86.224-84.511l-33.254-33.251
		C45.458,183.264,6.749,238.942,4.073,242.847c-5.43,7.927-5.43,18.378,0,26.306c4.538,6.622,112.716,162.2,251.927,162.203v-46.545
		C162.468,384.808,80.001,291.154,52.333,255.978z"/>
</g>
<g>
</g>
<g>
</g>
<g>
</g>
<g>
</g>
<g>
</g>
<g>
</g>
<g>
</g>
<g>
</g>
<g>
</g>
<g>
</g>
<g>
</g>
<g>
</g>
<g>
</g>
<g>
</g>
<g>
</g>
</svg>
