<?xml version="1.0" encoding="iso-8859-1"?>
<!-- Generator: Adobe Illustrator 19.0.0, SVG Export Plug-In . SVG Version: 6.00 Build 0)  -->
<svg version="1.1" id="Layer_1" xmlns="http://www.w3.org/2000/svg" xmlns:xlink="http://www.w3.org/1999/xlink" x="0px" y="0px"
	 viewBox="0 0 512 512" style="enable-background:new 0 0 512 512;" xml:space="preserve">
<g>
	<path style="fill:#3D6DEB;" d="M182.857,0H36.571C16.374,0,0,16.374,0,36.571v146.286c0,20.197,16.374,36.571,36.571,36.571
		h146.286c20.197,0,36.571-16.374,36.571-36.571V36.571C219.429,16.374,203.054,0,182.857,0z"/>
	<path style="fill:#3D6DEB;" d="M182.857,292.571H36.571C16.374,292.571,0,308.946,0,329.143v146.286
		C0,495.626,16.374,512,36.571,512h146.286c20.197,0,36.571-16.374,36.571-36.571V329.143
		C219.429,308.946,203.054,292.571,182.857,292.571z"/>
	<path style="fill:#3D6DEB;" d="M475.429,0H329.143c-20.197,0-36.571,16.374-36.571,36.571v146.286
		c0,20.197,16.374,36.571,36.571,36.571h146.286c20.197,0,36.571-16.374,36.571-36.571V36.571C512,16.374,495.626,0,475.429,0z"/>
	<path style="fill:#3D6DEB;" d="M475.429,292.571H329.143c-20.197,0-36.571,16.374-36.571,36.571v146.286
		c0,20.197,16.374,36.571,36.571,36.571h146.286C495.626,512,512,495.626,512,475.429V329.143
		C512,308.946,495.626,292.571,475.429,292.571z"/>
</g>
<g>
</g>
<g>
</g>
<g>
</g>
<g>
</g>
<g>
</g>
<g>
</g>
<g>
</g>
<g>
</g>
<g>
</g>
<g>
</g>
<g>
</g>
<g>
</g>
<g>
</g>
<g>
</g>
<g>
</g>
</svg>
