<?xml version="1.0" encoding="iso-8859-1"?>
<!-- Generator: Adobe Illustrator 19.0.0, SVG Export Plug-In . SVG Version: 6.00 Build 0)  -->
<svg version="1.1" id="Layer_1" xmlns="http://www.w3.org/2000/svg" xmlns:xlink="http://www.w3.org/1999/xlink" x="0px" y="0px"
	 viewBox="0 0 512 512" style="enable-background:new 0 0 512 512;" xml:space="preserve">
<g>
	<path style="fill:#3D6DEB;" d="M488.727,139.636H23.273C10.42,139.636,0,150.056,0,162.909c0,12.853,10.42,23.273,23.273,23.273
		h465.455c12.853,0,23.273-10.42,23.273-23.273C512,150.056,501.58,139.636,488.727,139.636z"/>
	<path style="fill:#3D6DEB;" d="M488.727,232.727H23.273C10.42,232.727,0,243.147,0,256c0,12.853,10.42,23.273,23.273,23.273
		h465.455C501.58,279.273,512,268.853,512,256C512,243.147,501.58,232.727,488.727,232.727z"/>
	<path style="fill:#3D6DEB;" d="M488.727,325.818H23.273C10.42,325.818,0,336.238,0,349.091c0,12.853,10.42,23.273,23.273,23.273
		h465.455c12.853,0,23.273-10.42,23.273-23.273C512,336.238,501.58,325.818,488.727,325.818z"/>
</g>
<g>
</g>
<g>
</g>
<g>
</g>
<g>
</g>
<g>
</g>
<g>
</g>
<g>
</g>
<g>
</g>
<g>
</g>
<g>
</g>
<g>
</g>
<g>
</g>
<g>
</g>
<g>
</g>
<g>
</g>
</svg>
