<?xml version="1.0" encoding="iso-8859-1"?>
<!-- Generator: Adobe Illustrator 19.0.0, SVG Export Plug-In . SVG Version: 6.00 Build 0)  -->
<svg version="1.1" id="Layer_1" xmlns="http://www.w3.org/2000/svg" xmlns:xlink="http://www.w3.org/1999/xlink" x="0px" y="0px"
	 viewBox="0 0 512 512" style="enable-background:new 0 0 512 512;" xml:space="preserve">
<g>
	<path style="fill:#3D6DEB;" d="M475.429,0h-48.762c-20.197,0-36.571,16.374-36.571,36.571v48.762
		c0,20.197,16.374,36.571,36.571,36.571h48.762c20.197,0,36.571-16.374,36.571-36.571V36.571C512,16.374,495.626,0,475.429,0z"/>
	<path style="fill:#3D6DEB;" d="M280.381,0h-48.762c-20.197,0-36.571,16.374-36.571,36.571v48.762
		c0,20.197,16.374,36.571,36.571,36.571h48.762c20.197,0,36.571-16.374,36.571-36.571V36.571C316.952,16.374,300.578,0,280.381,0z"
		/>
	<path style="fill:#3D6DEB;" d="M85.333,0H36.571C16.374,0,0,16.374,0,36.571v48.762c0,20.197,16.374,36.571,36.571,36.571h48.762
		c20.197,0,36.571-16.374,36.571-36.571V36.571C121.905,16.374,105.531,0,85.333,0z"/>
	<path style="fill:#3D6DEB;" d="M475.429,390.095h-48.762c-20.197,0-36.571,16.374-36.571,36.571v48.762
		c0,20.197,16.374,36.571,36.571,36.571h48.762C495.626,512,512,495.626,512,475.429v-48.762
		C512,406.47,495.626,390.095,475.429,390.095z"/>
	<path style="fill:#3D6DEB;" d="M280.381,390.095h-48.762c-20.197,0-36.571,16.374-36.571,36.571v48.762
		c0,20.197,16.374,36.571,36.571,36.571h48.762c20.197,0,36.571-16.374,36.571-36.571v-48.762
		C316.952,406.47,300.578,390.095,280.381,390.095z"/>
	<path style="fill:#3D6DEB;" d="M85.333,390.095H36.571C16.374,390.095,0,406.47,0,426.667v48.762C0,495.626,16.374,512,36.571,512
		h48.762c20.197,0,36.571-16.374,36.571-36.571v-48.762C121.905,406.47,105.531,390.095,85.333,390.095z"/>
	<path style="fill:#3D6DEB;" d="M475.429,195.048h-48.762c-20.197,0-36.571,16.374-36.571,36.571v48.762
		c0,20.197,16.374,36.571,36.571,36.571h48.762c20.197,0,36.571-16.374,36.571-36.571v-48.762
		C512,211.422,495.626,195.048,475.429,195.048z"/>
	<path style="fill:#3D6DEB;" d="M280.381,195.048h-48.762c-20.197,0-36.571,16.374-36.571,36.571v48.762
		c0,20.197,16.374,36.571,36.571,36.571h48.762c20.197,0,36.571-16.374,36.571-36.571v-48.762
		C316.952,211.422,300.578,195.048,280.381,195.048z"/>
	<path style="fill:#3D6DEB;" d="M85.333,195.048H36.571C16.374,195.048,0,211.422,0,231.619v48.762
		c0,20.197,16.374,36.571,36.571,36.571h48.762c20.197,0,36.571-16.374,36.571-36.571v-48.762
		C121.905,211.422,105.531,195.048,85.333,195.048z"/>
</g>
<g>
</g>
<g>
</g>
<g>
</g>
<g>
</g>
<g>
</g>
<g>
</g>
<g>
</g>
<g>
</g>
<g>
</g>
<g>
</g>
<g>
</g>
<g>
</g>
<g>
</g>
<g>
</g>
<g>
</g>
</svg>
