<?xml version="1.0" encoding="iso-8859-1"?>
<!-- Generator: Adobe Illustrator 19.0.0, SVG Export Plug-In . SVG Version: 6.00 Build 0)  -->
<svg version="1.1" id="Layer_1" xmlns="http://www.w3.org/2000/svg" xmlns:xlink="http://www.w3.org/1999/xlink" x="0px" y="0px"
	 viewBox="0 0 512 512" style="enable-background:new 0 0 512 512;" xml:space="preserve">
<g>
	<path style="fill:#3D6DEB;" d="M478.608,89.039H211.473c-18.439,0-33.392,14.951-33.392,33.392s14.953,33.392,33.392,33.392
		h267.135c18.443,0,33.392-14.951,33.392-33.392S497.052,89.039,478.608,89.039z"/>
	<path style="fill:#3D6DEB;" d="M478.608,222.607H211.473c-18.439,0-33.392,14.951-33.392,33.392s14.953,33.392,33.392,33.392
		h267.135c18.443,0,33.392-14.951,33.392-33.392S497.052,222.607,478.608,222.607z"/>
	<path style="fill:#3D6DEB;" d="M478.608,356.175H211.473c-18.439,0-33.392,14.951-33.392,33.392s14.953,33.392,33.392,33.392
		h267.135c18.443,0,33.392-14.951,33.392-33.392S497.052,356.175,478.608,356.175z"/>
	<path style="fill:#3D6DEB;" d="M56.989,413.175c6.235-6.209,9.795-14.824,9.795-23.617c0-8.771-3.562-17.388-9.795-23.599
		c-6.209-6.211-14.826-9.793-23.597-9.793c-8.791,0-17.408,3.582-23.617,9.793C3.562,372.172,0,380.764,0,389.558
		c0,8.793,3.562,17.408,9.775,23.617c6.209,6.211,14.826,9.795,23.617,9.795C42.161,422.972,50.778,419.388,56.989,413.175z"/>
	<path style="fill:#3D6DEB;" d="M33.392,289.382c8.769,0,17.386-3.564,23.597-9.775c6.235-6.209,9.795-14.824,9.795-23.617
		c0-8.771-3.562-17.388-9.795-23.599c-6.209-6.233-14.826-9.793-23.597-9.793c-8.791,0-17.408,3.562-23.617,9.793
		C3.562,238.604,0,247.197,0,255.99s3.562,17.408,9.775,23.617C15.984,285.82,24.601,289.382,33.392,289.382z"/>
	<path style="fill:#3D6DEB;" d="M33.392,155.814c8.769,0,17.386-3.564,23.597-9.775c6.233-6.209,9.795-14.824,9.795-23.617
		c0-8.771-3.562-17.388-9.795-23.599c-6.209-6.233-14.826-9.793-23.597-9.793c-8.791,0-17.408,3.562-23.617,9.793
		C3.562,105.036,0,113.629,0,122.422c0,8.815,3.562,17.408,9.775,23.617C15.984,152.253,24.601,155.814,33.392,155.814z"/>
</g>
<g>
</g>
<g>
</g>
<g>
</g>
<g>
</g>
<g>
</g>
<g>
</g>
<g>
</g>
<g>
</g>
<g>
</g>
<g>
</g>
<g>
</g>
<g>
</g>
<g>
</g>
<g>
</g>
<g>
</g>
</svg>
