<?xml version="1.0" encoding="iso-8859-1"?>
<!-- Generator: Adobe Illustrator 19.0.0, SVG Export Plug-In . SVG Version: 6.00 Build 0)  -->
<svg version="1.1" id="Layer_1" xmlns="http://www.w3.org/2000/svg" xmlns:xlink="http://www.w3.org/1999/xlink" x="0px" y="0px"
	 viewBox="0 0 512 512" style="enable-background:new 0 0 512 512;" xml:space="preserve">
<g>
	<path style="fill:#3D6DEB;" d="M280.381,0h-48.762c-20.197,0-36.571,16.374-36.571,36.571v48.762
		c0,20.197,16.374,36.571,36.571,36.571h48.762c20.197,0,36.571-16.374,36.571-36.571V36.571C316.952,16.374,300.578,0,280.381,0z"
		/>
	<path style="fill:#3D6DEB;" d="M280.381,195.048h-48.762c-20.197,0-36.571,16.374-36.571,36.571v48.762
		c0,20.197,16.374,36.571,36.571,36.571h48.762c20.197,0,36.571-16.374,36.571-36.571v-48.762
		C316.952,211.422,300.578,195.048,280.381,195.048z"/>
	<path style="fill:#3D6DEB;" d="M280.381,390.095h-48.762c-20.197,0-36.571,16.374-36.571,36.571v48.762
		c0,20.197,16.374,36.571,36.571,36.571h48.762c20.197,0,36.571-16.374,36.571-36.571v-48.762
		C316.952,406.47,300.578,390.095,280.381,390.095z"/>
</g>
<g>
</g>
<g>
</g>
<g>
</g>
<g>
</g>
<g>
</g>
<g>
</g>
<g>
</g>
<g>
</g>
<g>
</g>
<g>
</g>
<g>
</g>
<g>
</g>
<g>
</g>
<g>
</g>
<g>
</g>
</svg>
