<?xml version="1.0" encoding="iso-8859-1"?>
<!-- Generator: Adobe Illustrator 19.0.0, SVG Export Plug-In . SVG Version: 6.00 Build 0)  -->
<svg version="1.1" id="Layer_1" xmlns="http://www.w3.org/2000/svg" xmlns:xlink="http://www.w3.org/1999/xlink" x="0px" y="0px"
	 viewBox="0 0 512.005 512.005" style="enable-background:new 0 0 512.005 512.005;" xml:space="preserve">
<path style="fill:#64C37D;" d="M376.35,112.755l16.879-84.86c1.842-9.259-2.076-18.717-9.925-23.961
	c-7.85-5.246-18.087-5.246-25.937,0L243.036,80.328c-0.008,0.005-0.016,0.011-0.023,0.017c-0.528,0.355-1.032,0.741-1.528,1.134
	c-0.101,0.081-0.213,0.151-0.313,0.233c-0.584,0.481-1.142,0.988-1.676,1.522c-0.163,0.163-0.307,0.345-0.467,0.514
	c-0.359,0.383-0.724,0.762-1.058,1.169c-0.132,0.162-0.247,0.338-0.377,0.504c-0.339,0.434-0.677,0.868-0.983,1.327
	c-0.078,0.115-0.14,0.24-0.216,0.356c-0.338,0.523-0.666,1.053-0.963,1.604c-0.033,0.064-0.058,0.129-0.092,0.193
	c-0.322,0.612-0.622,1.234-0.89,1.877c-0.012,0.031-0.022,0.065-0.034,0.096c-0.275,0.671-0.524,1.355-0.738,2.057
	c-0.02,0.064-0.033,0.129-0.05,0.195c-0.196,0.666-0.372,1.338-0.509,2.028c-0.003,0.011-0.006,0.02-0.008,0.031
	c-0.042,0.213-0.059,0.429-0.096,0.644c-0.089,0.528-0.182,1.055-0.235,1.595c-0.068,0.685-0.096,1.371-0.104,2.056
	c0,0.087-0.012,0.171-0.012,0.26c0,0.003,0,0.005,0,0.006c0,0.778,0.039,1.555,0.118,2.326c0.045,0.478,0.134,0.943,0.21,1.411
	c0.045,0.28,0.073,0.563,0.128,0.843c0.121,0.604,0.28,1.192,0.445,1.777c0.039,0.142,0.067,0.286,0.109,0.426
	c0.188,0.619,0.412,1.225,0.65,1.821c0.042,0.107,0.075,0.219,0.12,0.327c0.251,0.605,0.535,1.192,0.834,1.769
	c0.051,0.1,0.093,0.204,0.146,0.302c0.321,0.598,0.674,1.175,1.041,1.74c0.048,0.072,0.086,0.148,0.132,0.219l0.02,0.03
	c0.022,0.031,0.04,0.062,0.062,0.092l76.313,114.21c4.384,6.562,11.708,10.374,19.405,10.374c1.511,0,3.038-0.148,4.558-0.45
	c9.259-1.842,16.498-9.08,18.339-18.34l10.974-55.171c37.191,31.415,60.857,78.365,60.857,130.748
	c0,94.356-76.764,171.121-171.12,171.121c-94.357,0-171.123-76.765-171.123-171.121c0-62.522,34.094-120.058,88.976-150.156
	c11.305-6.198,15.443-20.386,9.243-31.688c-6.198-11.303-20.382-15.441-31.69-9.243C81.579,141.408,38.199,214.628,38.199,294.201
	c0,120.097,97.707,217.804,217.806,217.804c120.097,0,217.802-97.707,217.802-217.804
	C473.807,218.561,435.044,151.816,376.35,112.755z"/>
<g>
</g>
<g>
</g>
<g>
</g>
<g>
</g>
<g>
</g>
<g>
</g>
<g>
</g>
<g>
</g>
<g>
</g>
<g>
</g>
<g>
</g>
<g>
</g>
<g>
</g>
<g>
</g>
<g>
</g>
</svg>
