<?xml version="1.0" encoding="iso-8859-1"?>
<!-- Generator: Adobe Illustrator 19.0.0, SVG Export Plug-In . SVG Version: 6.00 Build 0)  -->
<svg version="1.1" id="Layer_1" xmlns="http://www.w3.org/2000/svg" xmlns:xlink="http://www.w3.org/1999/xlink" x="0px" y="0px"
	 viewBox="0 0 512 512" style="enable-background:new 0 0 512 512;" xml:space="preserve">
<g>
	<path style="fill:#64C37D;" d="M286.058,177.326l0.025-90.743c0.003-9.413-5.665-17.901-14.361-21.504
		c-8.692-3.603-18.704-1.617-25.364,5.038L133.37,183.045c-9.09,9.087-9.095,23.822-0.009,32.912l112.929,112.991
		c4.451,4.456,10.408,6.822,16.465,6.822c2.998,0,6.018-0.579,8.895-1.77c8.696-3.6,14.37-12.085,14.373-21.496l0.023-88.384
		c100.835,11.563,179.409,97.424,179.409,201.304c0,12.853,10.42,23.273,23.273,23.273S512,438.277,512,425.424
		C512,295.859,412.601,189.089,286.058,177.326z"/>
	<path style="fill:#64C37D;" d="M56.185,199.514l96.528-96.478c9.09-9.086,9.095-23.822,0.009-32.912
		c-9.089-9.092-23.824-9.093-32.912-0.008L6.821,183.043c-9.09,9.087-9.095,23.822-0.009,32.912l112.93,112.991
		c4.544,4.547,10.504,6.82,16.46,6.82c5.955,0,11.908-2.27,16.452-6.813c9.09-9.087,9.095-23.822,0.009-32.912L56.185,199.514z"/>
</g>
<g>
</g>
<g>
</g>
<g>
</g>
<g>
</g>
<g>
</g>
<g>
</g>
<g>
</g>
<g>
</g>
<g>
</g>
<g>
</g>
<g>
</g>
<g>
</g>
<g>
</g>
<g>
</g>
<g>
</g>
</svg>
