<?xml version="1.0" encoding="iso-8859-1"?>
<!-- Generator: Adobe Illustrator 19.0.0, SVG Export Plug-In . SVG Version: 6.00 Build 0)  -->
<svg version="1.1" id="Layer_1" xmlns="http://www.w3.org/2000/svg" xmlns:xlink="http://www.w3.org/1999/xlink" x="0px" y="0px"
	 viewBox="0 0 512 512" style="enable-background:new 0 0 512 512;" xml:space="preserve">
<path style="fill:#64C37D;" d="M211.879,151.495l0.031-120.536c0.004-12.503-7.524-23.779-19.076-28.564
	c-11.547-4.787-24.844-2.15-33.69,6.69L9.06,159.089c-12.075,12.069-12.081,31.643-0.012,43.718l150.005,150.087
	c5.913,5.919,13.825,9.062,21.87,9.062c3.982,0,7.994-0.769,11.815-2.352c11.551-4.781,19.088-16.052,19.092-28.554l0.031-117.401
	c133.94,15.362,238.312,129.412,238.312,267.4c0,17.072,13.841,30.914,30.914,30.914c17.072,0,30.914-13.841,30.914-30.914
	C512,308.944,379.969,167.121,211.879,151.495z"/>
<g>
</g>
<g>
</g>
<g>
</g>
<g>
</g>
<g>
</g>
<g>
</g>
<g>
</g>
<g>
</g>
<g>
</g>
<g>
</g>
<g>
</g>
<g>
</g>
<g>
</g>
<g>
</g>
<g>
</g>
</svg>
