<?xml version="1.0" encoding="iso-8859-1"?>
<!-- Generator: Adobe Illustrator 19.0.0, SVG Export Plug-In . SVG Version: 6.00 Build 0)  -->
<svg version="1.1" id="Layer_1" xmlns="http://www.w3.org/2000/svg" xmlns:xlink="http://www.w3.org/1999/xlink" x="0px" y="0px"
	 viewBox="0 0 512.001 512.001" style="enable-background:new 0 0 512.001 512.001;" xml:space="preserve">
<path style="fill:#B3D8F4;" d="M505.183,472.272L346.498,313.588c25.92-32.979,41.397-74.536,41.397-119.639
	C387.896,87.005,300.892,0,193.947,0C140.435,0,91.916,21.785,56.79,56.952C21.718,92.066,0,140.518,0,193.947
	c0,106.944,87.004,193.947,193.947,193.947c45.103,0,86.658-15.476,119.639-41.396L472.27,505.183
	c4.544,4.546,10.501,6.817,16.457,6.817c5.921,0,11.838-2.25,16.372-6.74c0.028-0.028,0.057-0.05,0.085-0.078
	C514.273,496.096,514.273,481.359,505.183,472.272z"/>
<path style="fill:#FFFFFF;" d="M193.947,46.546c-81.278,0-147.402,66.124-147.402,147.402s66.124,147.402,147.402,147.402
	c81.279,0,147.403-66.124,147.403-147.402C341.35,112.67,275.226,46.546,193.947,46.546z"/>
<path style="fill:#BDFDFF;" d="M193.947,46.546c-40.679,0-77.562,16.566-104.26,43.304c-26.643,26.685-43.141,63.5-43.141,104.097
	c0,81.278,66.124,147.402,147.402,147.402c40.598,0,77.414-16.499,104.099-43.141c26.739-26.697,43.304-63.58,43.304-104.26
	C341.35,112.67,275.226,46.546,193.947,46.546z"/>
<path style="fill:#9BC9FF;" d="M46.545,193.947c0,81.278,66.124,147.402,147.402,147.402c40.598,0,77.414-16.499,104.099-43.141
	L89.687,89.85C63.044,116.535,46.545,153.35,46.545,193.947z"/>
<path style="fill:#8CB7E8;" d="M193.947,387.895c45.103,0,86.658-15.476,119.639-41.396L472.27,505.183
	c4.544,4.546,10.501,6.817,16.457,6.817c5.921,0,11.838-2.25,16.372-6.74L298.046,298.208
	c-26.685,26.643-63.5,43.141-104.099,43.141c-81.278,0-147.402-66.124-147.402-147.402c0-40.598,16.499-77.414,43.141-104.099
	L56.79,56.952C21.718,92.066,0,140.518,0,193.947C0,300.892,87.004,387.895,193.947,387.895z"/>
<g>
</g>
<g>
</g>
<g>
</g>
<g>
</g>
<g>
</g>
<g>
</g>
<g>
</g>
<g>
</g>
<g>
</g>
<g>
</g>
<g>
</g>
<g>
</g>
<g>
</g>
<g>
</g>
<g>
</g>
</svg>
