<?xml version="1.0" encoding="iso-8859-1"?>
<!-- Generator: Adobe Illustrator 19.0.0, SVG Export Plug-In . SVG Version: 6.00 Build 0)  -->
<svg version="1.1" id="Layer_1" xmlns="http://www.w3.org/2000/svg" xmlns:xlink="http://www.w3.org/1999/xlink" x="0px" y="0px"
	 viewBox="0 0 512 512" style="enable-background:new 0 0 512 512;" xml:space="preserve">
<path style="fill:#77757F;" d="M507.926,242.845c-0.85-1.241-5.347-7.72-13.006-17.428c-1.277-1.618-2.641-3.325-4.091-5.114
	c-1.451-1.789-2.987-3.657-4.606-5.596c-1.62-1.939-3.322-3.95-5.108-6.023c-10.705-12.435-24.337-27.096-40.415-41.975
	c-2.679-2.479-5.427-4.966-8.24-7.449c-2.813-2.482-5.693-4.962-8.636-7.429c-8.828-7.401-18.229-14.688-28.14-21.613
	c-3.305-2.309-6.665-4.575-10.08-6.794c-8.538-5.545-17.419-10.78-26.605-15.557c-3.676-1.911-7.399-3.75-11.169-5.506
	c-5.657-2.634-11.418-5.084-17.278-7.317c-3.907-1.488-7.857-2.881-11.849-4.167c-5.987-1.93-12.068-3.624-18.233-5.049
	c-2.056-0.475-4.121-0.92-6.194-1.334c-4.149-0.829-8.333-1.531-12.553-2.102c-8.439-1.14-17.019-1.749-25.716-1.749
	c-0.005,0-0.009,0-0.012,0c-0.155,0-0.307,0.008-0.462,0.008c-4.194,0.011-8.361,0.155-12.496,0.439
	c-0.057,0.005-0.115,0.011-0.172,0.014c-2.085,0.146-4.164,0.321-6.234,0.534c-0.039,0.005-0.076,0.009-0.113,0.014
	c-6.343,0.652-12.611,1.609-18.795,2.844c-0.231,0.047-0.459,0.102-0.69,0.149c-1.842,0.374-3.677,0.763-5.505,1.185
	c-0.191,0.043-0.379,0.096-0.568,0.14c-1.863,0.436-3.722,0.889-5.57,1.373c-0.022,0.006-0.043,0.012-0.065,0.019
	c-32.552,8.54-62.602,24.408-89.015,42.861c-0.147,0.102-0.292,0.208-0.438,0.312c-3.151,2.208-6.254,4.451-9.3,6.724
	c-0.343,0.256-0.676,0.515-1.018,0.771c-4.422,3.323-8.737,6.701-12.923,10.116c-0.005,0.003-0.008,0.006-0.012,0.009
	c-10.515,8.578-20.264,17.368-29.156,25.968c-0.287,0.278-0.563,0.552-0.849,0.83c-14.162,13.765-26.103,27.004-35.444,38.099
	c-0.869,1.033-1.716,2.045-2.54,3.039c-10.435,12.589-17.2,21.965-19.653,25.459c-0.24,0.343-0.455,0.65-0.613,0.877
	c-0.121,0.175-0.217,0.315-0.289,0.419c-5.43,7.927-5.43,18.378,0,26.306c0.071,0.104,0.168,0.244,0.289,0.419
	c0.157,0.227,0.372,0.534,0.613,0.877c0.262,0.374,0.574,0.815,0.936,1.32c0.172,0.242,0.358,0.501,0.554,0.773
	c2.684,3.736,7.461,10.183,14.114,18.418c0.422,0.523,0.853,1.053,1.291,1.59c0.889,1.091,1.811,2.211,2.76,3.357
	c0.824,0.995,1.671,2.008,2.54,3.039c11.827,14.047,27.826,31.538,47.214,49.168c0.329,0.299,0.65,0.597,0.981,0.897
	c5.486,4.96,11.239,9.925,17.24,14.823c0.008,0.006,0.016,0.012,0.023,0.019c17.838,14.553,37.879,28.494,59.651,39.894
	c0.239,0.126,0.475,0.256,0.714,0.382c16.517,8.591,34.028,15.708,52.328,20.509c0.022,0.006,0.043,0.012,0.065,0.019
	c3.894,1.021,7.827,1.929,11.792,2.731c0.182,0.037,0.362,0.081,0.543,0.116c2.053,0.41,4.113,0.788,6.184,1.136
	c0.022,0.003,0.043,0.008,0.065,0.012c4.147,0.695,8.33,1.263,12.546,1.696c0.039,0.005,0.076,0.009,0.113,0.014
	c2.07,0.211,4.149,0.388,6.234,0.534c0.057,0.005,0.115,0.011,0.172,0.014c4.135,0.284,8.302,0.428,12.496,0.439
	c0.154,0,0.307,0.008,0.462,0.008c0.005,0,0.009,0,0.012,0c8.699,0,17.278-0.608,25.716-1.749c4.22-0.571,8.405-1.274,12.553-2.102
	c2.074-0.414,4.139-0.86,6.194-1.334c6.166-1.424,12.246-3.117,18.233-5.049c3.992-1.286,7.942-2.679,11.849-4.169
	c5.86-2.233,11.621-4.682,17.278-7.317c3.77-1.756,7.495-3.595,11.169-5.506c9.187-4.779,18.067-10.013,26.605-15.559
	c3.415-2.219,6.775-4.485,10.08-6.794c9.911-6.924,19.312-14.212,28.14-21.613c2.943-2.467,5.821-4.946,8.636-7.429
	c2.814-2.482,5.561-4.968,8.24-7.449c16.078-14.879,29.71-29.541,40.415-41.976c1.784-2.073,3.488-4.084,5.108-6.023
	c1.62-1.939,3.156-3.807,4.606-5.596c1.451-1.789,2.814-3.496,4.091-5.114c7.66-9.708,12.155-16.187,13.006-17.428
	C513.358,261.225,513.358,250.773,507.926,242.845z"/>
<path style="fill:#FFFFFF;" d="M256.005,127.188c-93.797,0-176.05,93.578-203.672,128.79
	c27.67,35.176,110.139,128.833,203.672,128.833c93.488,0,175.942-93.601,203.647-128.813
	C431.959,220.804,349.499,127.188,256.005,127.188z M256.005,320.628c-35.708,0-64.652-28.9-64.652-64.628
	c0-35.727,28.944-64.627,64.652-64.627c35.685,0,64.65,28.9,64.65,64.627C320.655,291.728,291.69,320.628,256.005,320.628z"/>
<path style="fill:#222224;" d="M256.005,191.371c-35.708,0-64.652,28.9-64.652,64.627c0,35.728,28.944,64.628,64.652,64.628
	c35.685,0,64.65-28.9,64.65-64.628C320.655,220.272,291.69,191.371,256.005,191.371z"/>
<path style="fill:#5286FA;" d="M256.005,191.371c-0.005,0-0.008,0-0.012,0c-35.702,0.008-64.639,28.905-64.639,64.627
	c0,35.724,28.937,64.622,64.639,64.628c0.005,0,0.008,0,0.012,0c35.685,0,64.65-28.9,64.65-64.628
	C320.655,220.272,291.69,191.371,256.005,191.371z"/>
<path style="fill:#BDFDFF;" d="M256.005,127.188c-0.005,0-0.009,0-0.012,0c-93.792,0.008-176.038,93.58-203.66,128.79
	c27.668,35.174,110.131,128.824,203.66,128.832c0.005,0,0.009,0,0.012,0c93.488,0,175.942-93.603,203.647-128.813
	C431.959,220.804,349.499,127.188,256.005,127.188z M256.005,320.628c-0.005,0-0.008,0-0.012,0
	c-35.702-0.008-64.639-28.905-64.639-64.628s28.937-64.621,64.639-64.627c0.005,0,0.008,0,0.012,0c35.685,0,64.65,28.9,64.65,64.627
	C320.655,291.728,291.69,320.628,256.005,320.628z"/>
<path style="fill:#9BC9FF;" d="M52.331,255.978c27.668,35.174,110.131,128.824,203.66,128.832v-64.183
	c-35.702-0.008-64.639-28.905-64.639-64.628s28.937-64.621,64.639-64.627v-64.183C162.2,127.198,79.953,220.768,52.331,255.978z"/>
<path style="fill:#57575C;" d="M52.331,255.978c27.622-35.21,109.867-128.782,203.66-128.79V80.643
	C116.784,80.652,8.611,236.223,4.073,242.846c-5.43,7.927-5.43,18.378,0,26.306c4.538,6.622,112.711,162.194,251.919,162.205
	v-46.545C162.464,384.802,80.001,291.154,52.331,255.978z"/>
<path style="fill:#3D6DEB;" d="M191.353,255.998c0,35.724,28.937,64.622,64.639,64.628V191.371
	C220.29,191.379,191.353,220.276,191.353,255.998z"/>
<g>
</g>
<g>
</g>
<g>
</g>
<g>
</g>
<g>
</g>
<g>
</g>
<g>
</g>
<g>
</g>
<g>
</g>
<g>
</g>
<g>
</g>
<g>
</g>
<g>
</g>
<g>
</g>
<g>
</g>
</svg>
