<?xml version="1.0" encoding="iso-8859-1"?>
<!-- Generator: Adobe Illustrator 19.0.0, SVG Export Plug-In . SVG Version: 6.00 Build 0)  -->
<svg version="1.1" id="Capa_1" xmlns="http://www.w3.org/2000/svg" xmlns:xlink="http://www.w3.org/1999/xlink" x="0px" y="0px"
	 viewBox="0 0 490.667 490.667" style="enable-background:new 0 0 490.667 490.667;" xml:space="preserve">
<g>
	<g>
		<path d="M487.552,259.113L252.885,24.446c-4.16-4.16-10.923-4.16-15.083,0L3.136,259.113C1.131,261.118,0,263.827,0,266.665v192
			c0,4.309,2.603,8.213,6.592,9.856c3.989,1.664,8.555,0.747,11.627-2.304l227.115-227.136l227.115,227.115
			c2.048,2.048,4.779,3.136,7.552,3.136c1.365,0,2.773-0.256,4.075-0.811c3.989-1.643,6.592-5.547,6.592-9.856v-192
			C490.667,263.827,489.536,261.118,487.552,259.113z"/>
	</g>
</g>
<g>
</g>
<g>
</g>
<g>
</g>
<g>
</g>
<g>
</g>
<g>
</g>
<g>
</g>
<g>
</g>
<g>
</g>
<g>
</g>
<g>
</g>
<g>
</g>
<g>
</g>
<g>
</g>
<g>
</g>
</svg>
