<?xml version="1.0" encoding="iso-8859-1"?>
<!-- Generator: Adobe Illustrator 19.0.0, SVG Export Plug-In . SVG Version: 6.00 Build 0)  -->
<svg version="1.1" id="Layer_1" xmlns="http://www.w3.org/2000/svg" xmlns:xlink="http://www.w3.org/1999/xlink" x="0px" y="0px"
	 viewBox="0 0 512 512" style="enable-background:new 0 0 512 512;" xml:space="preserve">
<path style="fill:#64C37D;" d="M272.463,6.82c-0.545-0.543-1.116-1.058-1.71-1.547c-0.267-0.219-0.554-0.413-0.828-0.621
	c-0.332-0.248-0.658-0.506-0.998-0.734c-0.332-0.222-0.684-0.419-1.027-0.624c-0.307-0.183-0.61-0.377-0.923-0.546
	c-0.352-0.188-0.717-0.349-1.077-0.518c-0.329-0.155-0.653-0.32-0.987-0.458c-0.349-0.144-0.709-0.262-1.064-0.391
	c-0.36-0.129-0.72-0.268-1.085-0.38c-0.352-0.107-0.72-0.186-1.08-0.278c-0.375-0.095-0.748-0.2-1.128-0.276
	c-0.416-0.082-0.844-0.133-1.268-0.194c-0.329-0.047-0.653-0.11-0.984-0.143C257.545,0.042,256.779,0,256.003,0
	c-0.776,0-1.541,0.042-2.296,0.116c-0.337,0.033-0.669,0.098-1.002,0.144c-0.417,0.059-0.838,0.109-1.249,0.191
	c-0.382,0.076-0.76,0.183-1.139,0.278c-0.357,0.09-0.718,0.168-1.069,0.275c-0.369,0.112-0.732,0.253-1.097,0.383
	c-0.352,0.127-0.709,0.242-1.052,0.385c-0.34,0.14-0.667,0.307-1.001,0.464c-0.357,0.168-0.718,0.327-1.064,0.514
	c-0.315,0.168-0.617,0.363-0.928,0.546c-0.344,0.205-0.694,0.402-1.027,0.624c-0.334,0.223-0.655,0.476-0.979,0.72
	c-0.284,0.211-0.576,0.411-0.849,0.635c-0.56,0.459-1.103,0.95-1.628,1.469c-0.025,0.025-0.051,0.045-0.078,0.07L130.939,115.419
	c-9.087,9.089-9.089,23.824,0,32.912c9.087,9.089,23.824,9.087,32.912,0.002l68.881-68.876v316.177
	c0,12.853,10.42,23.273,23.273,23.273s23.273-10.42,23.273-23.273V79.458l68.875,68.875c4.544,4.544,10.501,6.817,16.455,6.817
	s11.913-2.273,16.455-6.817c9.089-9.089,9.089-23.824,0-32.912L272.463,6.82z"/>
<path style="fill:#A9A8AE;" d="M488.727,465.455H23.273C10.42,465.455,0,475.875,0,488.727S10.42,512,23.273,512h465.455
	C501.58,512,512,501.58,512,488.727S501.58,465.455,488.727,465.455z"/>
<g>
</g>
<g>
</g>
<g>
</g>
<g>
</g>
<g>
</g>
<g>
</g>
<g>
</g>
<g>
</g>
<g>
</g>
<g>
</g>
<g>
</g>
<g>
</g>
<g>
</g>
<g>
</g>
<g>
</g>
</svg>
